# xmcd
#
# Track frame offsets: 
#        150
#        16227
#        33207
#        51792
#        66037
#        84860
#        96360
#        115152
#        127397
#        145652
#        160905
#        177720
#        190960
#        202290
#
# Disc length: 2763 seconds
#
# Revision: 0
# Processed by: cddbd v1.5.2PL0 Copyright (c) Steve Scherf et al.
# Submitted via: ExactAudioCopy v0.99pb5
#
DISCID=c80ac90e
DTITLE=Jim Liban Blues Combo - Blues For Shut-Ins
DYEAR=1999
DGENRE=Blues
TTITLE0=Wash Out - Sidetracked
TTITLE1=Mean Old World
TTITLE2=Blues For Amos
TTITLE3=Stop On By
TTITLE4=Ain't That Somethin'
TTITLE5=Red Headed Woman - I Just Keep Lovin' Her
TTITLE6=Hey Baby
TTITLE7=Musta Been Dreamin'
TTITLE8=Can't Hold Out Much Longer
TTITLE9=Funky Woman
TTITLE10=Cryin' For My Baby
TTITLE11=Sugar Sweet
TTITLE12=Liban and Son
TTITLE13=Amazing Grace (For Rooney)
EXTD=
EXTT0=
EXTT1=
EXTT2=
EXTT3=
EXTT4=
EXTT5=
EXTT6=
EXTT7=
EXTT8=
EXTT9=
EXTT10=
EXTT11=
EXTT12=
EXTT13=
PLAYORDER=
